<?xml version="1.0" encoding="iso-8859-1"?>
<!-- Generator: Adobe Illustrator 19.0.0, SVG Export Plug-In . SVG Version: 6.00 Build 0)  -->
<svg version="1.1" id="Capa_1" xmlns="http://www.w3.org/2000/svg" xmlns:xlink="http://www.w3.org/1999/xlink" x="0px" y="0px"
	 viewBox="0 0 361.776 361.776" style="enable-background:new 0 0 361.776 361.776;" xml:space="preserve">
<rect x="141.251" y="86.278" transform="matrix(-0.9697 0.2444 -0.2444 -0.9697 485.2026 269.9563)" style="fill:#F8B72B;" width="169.204" height="157.604"/>
<rect x="143.592" y="103.472" transform="matrix(-0.9696 0.2446 -0.2446 -0.9696 353.4057 320.6508)" style="fill:#F7C869;" width="26.399" height="157.596"/>
<g>
	<circle style="fill:#231F20;" cx="133.2" cy="311.488" r="14.4"/>
	<path style="fill:#231F20;" d="M361.6,253.088c-0.8-3.2-4-5.2-7.6-4.4l-186.4,48c-5.6-12.8-18.4-22-33.6-22.4h-0.8
		c-1.2,0-2,0-3.2,0l-64.4-256c-0.8-2.8-3.2-4.4-5.6-4.8l-54-1.2l0,0c-3.2,0-6,2.8-6,6s2.4,6,6,6.4l49.2,1.2l63.2,251.6
		c-13.2,5.6-22.4,18.8-22.8,33.6c-0.4,10,3.6,19.6,10.4,26.8c6.8,7.2,16.4,11.6,26.4,11.6h0.8c20.8,0,37.2-16,37.6-36.8
		c0-1.6,0-2.8,0-4.4l186.4-48C360.4,259.488,362.4,256.288,361.6,253.088z M133.2,337.088h-0.8c-6.8,0-13.2-2.8-18-8
		c-4.8-4.8-7.2-11.2-6.8-18c0.4-13.6,11.6-24.8,25.6-24.8h0.8c14,0.4,25.2,12,24.8,26S147.2,337.088,133.2,337.088z"/>
	<path style="fill:#231F20;" d="M157.2,263.488c0.4,1.6,1.6,2.8,2.8,3.6c0.8,0.4,2,0.8,3.2,0.8c0.4,0,1.2,0,1.6,0l164-41.2
		c3.2-0.8,5.2-4,4.4-7.6L302,96.688l0,0l0,0l-7.6-30c-0.4-1.6-1.6-2.8-2.8-3.6c-1.2-0.8-3.2-1.2-4.8-0.8l-164,41.2
		c-1.6,0.4-2.8,1.6-3.6,2.8s-1.2,3.2-0.8,4.8L157.2,263.488z M167.6,254.688l-28-110.8l152-38.4l28,110.8L167.6,254.688z
		 M284,75.088l4.8,18.4l-152,38.4l-4.8-18.4L284,75.088z"/>
</g>
<g>
</g>
<g>
</g>
<g>
</g>
<g>
</g>
<g>
</g>
<g>
</g>
<g>
</g>
<g>
</g>
<g>
</g>
<g>
</g>
<g>
</g>
<g>
</g>
<g>
</g>
<g>
</g>
<g>
</g>
</svg>
