<?xml version="1.0" encoding="iso-8859-1"?>
<!-- Generator: Adobe Illustrator 19.0.0, SVG Export Plug-In . SVG Version: 6.00 Build 0)  -->
<svg version="1.1" id="Capa_1" xmlns="http://www.w3.org/2000/svg" xmlns:xlink="http://www.w3.org/1999/xlink" x="0px" y="0px"
	 viewBox="0 0 512.001 512.001" style="enable-background:new 0 0 512.001 512.001;" xml:space="preserve">
<path style="fill:#86E56E;" d="M81.085,146.289c36.164,88.882,106.681,159.399,195.563,195.563
	c40.292,16.418,86.498,7.104,117.283-23.641l9.142-9.359c11.406-11.369,11.435-29.831,0.067-41.236
	c-1.646-1.652-3.485-3.1-5.476-4.314l-57.938-34.514c-12.768-7.582-29.054-5.533-39.545,4.977l-13.146,13.308
	c-3.306,3.359-8.343,4.327-12.659,2.434c-45.058-19.811-81.015-55.846-100.73-100.946c-1.948-4.272-1.066-9.303,2.218-12.659
	l13.308-13.254c10.51-10.491,12.559-26.777,4.977-39.545l-34.514-57.83c-1.243-1.969-2.713-3.785-4.382-5.41
	c-11.398-11.348-29.825-11.348-41.222,0l-9.305,9.142C73.98,59.791,64.666,105.998,81.085,146.289z"/>
<path style="fill:#5FCE6A;" d="M403.073,270.11l-9.142,9.359c-30.785,30.745-76.992,40.059-117.284,23.641
	c-88.882-36.164-159.399-106.68-195.563-195.563c-2.855-7.006-4.913-14.193-6.235-21.445c-3.609,19.838-1.705,40.702,6.235,60.187
	c36.164,88.882,106.681,159.399,195.563,195.563c40.292,16.418,86.498,7.104,117.284-23.641l9.142-9.359
	c11.01-10.975,11.416-28.558,1.204-40.024C403.89,269.264,403.491,269.693,403.073,270.11z"/>
<path style="fill:#FFDF47;" d="M64.798,386.549l15.577,31.563c0.616,1.248,1.806,2.112,3.183,2.313l34.832,5.061
	c3.467,0.504,4.852,4.765,2.343,7.211l-25.205,24.568c-0.996,0.971-1.451,2.37-1.216,3.742l5.95,34.691
	c0.592,3.453-3.032,6.087-6.134,4.456l-31.155-16.379c-1.232-0.647-2.703-0.647-3.934,0l-31.155,16.379
	c-3.101,1.63-6.726-1.003-6.134-4.456l5.95-34.691c0.235-1.371-0.219-2.771-1.216-3.742L1.281,432.697
	c-2.509-2.446-1.125-6.707,2.343-7.211l34.832-5.061c1.377-0.2,2.567-1.065,3.183-2.313l15.577-31.563
	C58.767,383.407,63.247,383.407,64.798,386.549z"/>
<path style="fill:#FFD400;" d="M120.733,432.697c2.509-2.446,1.125-6.707-2.343-7.211l-34.832-5.061
	c-1.377-0.2-2.567-1.065-3.183-2.313l-15.577-31.563c-1.551-3.142-6.031-3.142-7.582,0l-15.577,31.563
	c-0.318,0.644-0.79,1.183-1.36,1.584l3.83,7.76c0.616,1.248,1.806,2.112,3.183,2.313l34.832,5.061
	c3.467,0.504,4.852,4.765,2.343,7.211l-25.205,24.568c-0.996,0.971-1.451,2.37-1.216,3.742l2.231,13.01
	c0.909-0.16,1.858-0.026,2.697,0.414l31.155,16.379c3.101,1.63,6.726-1.003,6.134-4.456l-5.95-34.691
	c-0.235-1.371,0.22-2.771,1.216-3.742L120.733,432.697z"/>
<path style="fill:#FFDF47;" d="M259.791,386.549l15.577,31.563c0.616,1.248,1.806,2.112,3.183,2.313l34.832,5.061
	c3.467,0.504,4.852,4.765,2.343,7.211l-25.205,24.568c-0.996,0.971-1.451,2.37-1.216,3.742l5.95,34.691
	c0.592,3.453-3.032,6.087-6.134,4.456l-31.155-16.379c-1.232-0.647-2.703-0.647-3.934,0l-31.155,16.379
	c-3.101,1.63-6.726-1.003-6.134-4.456l5.95-34.691c0.235-1.371-0.219-2.771-1.216-3.742l-25.205-24.568
	c-2.509-2.446-1.125-6.707,2.343-7.211l34.832-5.061c1.377-0.2,2.567-1.065,3.183-2.313l15.577-31.563
	C253.76,383.407,258.24,383.407,259.791,386.549z"/>
<path style="fill:#FFD400;" d="M315.726,432.697c2.509-2.446,1.125-6.707-2.343-7.211l-34.832-5.061
	c-1.377-0.2-2.567-1.065-3.183-2.313l-15.577-31.563c-1.551-3.142-6.031-3.142-7.582,0l-15.577,31.563
	c-0.318,0.644-0.79,1.183-1.36,1.584l3.83,7.76c0.616,1.248,1.806,2.112,3.183,2.313l34.832,5.061
	c3.467,0.504,4.852,4.765,2.343,7.211l-25.205,24.568c-0.996,0.971-1.451,2.37-1.216,3.742l2.231,13.01
	c0.909-0.16,1.858-0.026,2.697,0.414l31.155,16.379c3.101,1.63,6.726-1.003,6.134-4.456l-5.95-34.691
	c-0.235-1.371,0.22-2.771,1.216-3.742L315.726,432.697z"/>
<path style="fill:#FFDF47;" d="M454.784,386.549l15.577,31.563c0.616,1.248,1.806,2.112,3.183,2.313l34.832,5.061
	c3.467,0.504,4.852,4.765,2.343,7.211l-25.205,24.568c-0.996,0.971-1.451,2.37-1.216,3.742l5.95,34.691
	c0.592,3.453-3.032,6.087-6.134,4.456l-31.155-16.379c-1.232-0.647-2.703-0.647-3.934,0l-31.155,16.379
	c-3.101,1.63-6.726-1.003-6.134-4.456l5.95-34.691c0.235-1.371-0.219-2.771-1.216-3.742l-25.205-24.568
	c-2.509-2.446-1.125-6.707,2.343-7.211l34.832-5.061c1.377-0.2,2.567-1.065,3.183-2.313l15.577-31.563
	C448.753,383.407,453.233,383.407,454.784,386.549z"/>
<path style="fill:#FFD400;" d="M510.719,432.697c2.509-2.446,1.125-6.707-2.343-7.211l-34.832-5.061
	c-1.377-0.2-2.567-1.065-3.183-2.313l-15.577-31.563c-1.551-3.142-6.031-3.142-7.582,0l-15.577,31.563
	c-0.318,0.644-0.79,1.183-1.36,1.584l3.83,7.76c0.616,1.248,1.806,2.112,3.183,2.313l34.832,5.061
	c3.467,0.504,4.852,4.765,2.343,7.211l-25.205,24.568c-0.996,0.971-1.451,2.37-1.216,3.742l2.231,13.01
	c0.909-0.16,1.858-0.026,2.697,0.414l31.155,16.379c3.101,1.63,6.726-1.003,6.134-4.456l-5.95-34.691
	c-0.235-1.371,0.22-2.771,1.216-3.742L510.719,432.697z"/>
<g>
</g>
<g>
</g>
<g>
</g>
<g>
</g>
<g>
</g>
<g>
</g>
<g>
</g>
<g>
</g>
<g>
</g>
<g>
</g>
<g>
</g>
<g>
</g>
<g>
</g>
<g>
</g>
<g>
</g>
</svg>
